<mxfile modified="2024-07-24T11:22:35.818Z" host="Electron" agent="Mozilla/5.0 (Windows NT 10.0; Win64; x64) AppleWebKit/537.36 (KHTML, like Gecko) draw.io/24.6.4 Chrome/124.0.6367.207 Electron/30.0.6 Safari/537.36" etag="93_rxkc93t3NYga1xc1j" version="24.6.4" type="device">
  <diagram id="Ht1M8jgEwFfnCIfOTk4-" name="Page-1">
    <mxGraphModel dx="325" dy="741" grid="1" gridSize="10" guides="1" tooltips="1" connect="1" arrows="1" fold="1" page="1" pageScale="1" pageWidth="827" pageHeight="1169" math="0" shadow="0">
      <root>
        <mxCell id="0" />
        <mxCell id="1" parent="0" />
        <mxCell id="KW59PeZABZt6SA6DWuRM-1" value="AWS Cloud" style="points=[[0,0],[0.25,0],[0.5,0],[0.75,0],[1,0],[1,0.25],[1,0.5],[1,0.75],[1,1],[0.75,1],[0.5,1],[0.25,1],[0,1],[0,0.75],[0,0.5],[0,0.25]];outlineConnect=0;gradientColor=none;html=1;whiteSpace=wrap;fontSize=12;fontStyle=0;shape=mxgraph.aws4.group;grIcon=mxgraph.aws4.group_aws_cloud_alt;strokeColor=#232F3E;fillColor=none;verticalAlign=top;align=left;spacingLeft=30;fontColor=#232F3E;dashed=0;container=1;pointerEvents=0;collapsible=0;recursiveResize=0;" parent="1" vertex="1">
          <mxGeometry x="1131" y="150.5" width="509" height="969.5" as="geometry" />
        </mxCell>
        <mxCell id="KW59PeZABZt6SA6DWuRM-3" value="VPC" style="points=[[0,0],[0.25,0],[0.5,0],[0.75,0],[1,0],[1,0.25],[1,0.5],[1,0.75],[1,1],[0.75,1],[0.5,1],[0.25,1],[0,1],[0,0.75],[0,0.5],[0,0.25]];outlineConnect=0;gradientColor=none;html=1;whiteSpace=wrap;fontSize=12;fontStyle=0;container=1;pointerEvents=0;collapsible=0;recursiveResize=0;shape=mxgraph.aws4.group;grIcon=mxgraph.aws4.group_vpc2;strokeColor=#8C4FFF;fillColor=none;verticalAlign=top;align=left;spacingLeft=30;fontColor=#AAB7B8;dashed=0;" parent="KW59PeZABZt6SA6DWuRM-1" vertex="1">
          <mxGeometry x="40" y="90" width="430" height="840" as="geometry" />
        </mxCell>
        <mxCell id="KW59PeZABZt6SA6DWuRM-12" value="Availability Zone" style="fillColor=none;strokeColor=#147EBA;dashed=1;verticalAlign=top;fontStyle=0;fontColor=#147EBA;whiteSpace=wrap;html=1;" parent="KW59PeZABZt6SA6DWuRM-3" vertex="1">
          <mxGeometry x="29" y="65.5" width="371" height="754.5" as="geometry" />
        </mxCell>
        <mxCell id="KW59PeZABZt6SA6DWuRM-4" value="Public subnet" style="points=[[0,0],[0.25,0],[0.5,0],[0.75,0],[1,0],[1,0.25],[1,0.5],[1,0.75],[1,1],[0.75,1],[0.5,1],[0.25,1],[0,1],[0,0.75],[0,0.5],[0,0.25]];outlineConnect=0;gradientColor=none;html=1;whiteSpace=wrap;fontSize=12;fontStyle=0;container=1;pointerEvents=0;collapsible=0;recursiveResize=0;shape=mxgraph.aws4.group;grIcon=mxgraph.aws4.group_security_group;grStroke=0;strokeColor=#7AA116;fillColor=#F2F6E8;verticalAlign=top;align=left;spacingLeft=30;fontColor=#248814;dashed=0;" parent="KW59PeZABZt6SA6DWuRM-3" vertex="1">
          <mxGeometry x="40" y="130" width="240" height="260" as="geometry" />
        </mxCell>
        <mxCell id="KW59PeZABZt6SA6DWuRM-10" value="Security group" style="fillColor=none;strokeColor=#DD3522;verticalAlign=top;fontStyle=0;fontColor=#DD3522;whiteSpace=wrap;html=1;" parent="KW59PeZABZt6SA6DWuRM-4" vertex="1">
          <mxGeometry x="50" y="65" width="130" height="130" as="geometry" />
        </mxCell>
        <mxCell id="iPUKWWcroHYGa8-xgQve-13" value="" style="outlineConnect=0;dashed=0;verticalLabelPosition=bottom;verticalAlign=top;align=center;html=1;shape=mxgraph.aws3.ec2_compute_container;fillColor=#F58534;gradientColor=none;" vertex="1" parent="KW59PeZABZt6SA6DWuRM-4">
          <mxGeometry x="67.5" y="104.75" width="95" height="50.5" as="geometry" />
        </mxCell>
        <mxCell id="KW59PeZABZt6SA6DWuRM-6" value="" style="sketch=0;outlineConnect=0;fontColor=#232F3E;gradientColor=none;fillColor=#8C4FFF;strokeColor=none;dashed=0;verticalLabelPosition=bottom;verticalAlign=top;align=center;html=1;fontSize=12;fontStyle=0;aspect=fixed;pointerEvents=1;shape=mxgraph.aws4.internet_gateway;" parent="KW59PeZABZt6SA6DWuRM-3" vertex="1">
          <mxGeometry x="-23" y="236.25" width="47.5" height="47.5" as="geometry" />
        </mxCell>
        <mxCell id="KW59PeZABZt6SA6DWuRM-8" value="&lt;span class=&quot;hljs-number&quot;&gt;192.168&lt;/span&gt;&lt;span class=&quot;hljs-number&quot;&gt;.16&lt;/span&gt;&lt;span class=&quot;hljs-number&quot;&gt;.0&lt;/span&gt;&lt;span class=&quot;hljs-operator&quot;&gt;/&lt;/span&gt;&lt;span class=&quot;hljs-number&quot;&gt;24&lt;/span&gt;" style="text;html=1;align=left;verticalAlign=middle;whiteSpace=wrap;rounded=0;fillColor=#d5e8d4;strokeColor=#82b366;" parent="KW59PeZABZt6SA6DWuRM-3" vertex="1">
          <mxGeometry x="40" y="110" width="100" height="20" as="geometry" />
        </mxCell>
        <mxCell id="KW59PeZABZt6SA6DWuRM-13" value="us-east-1a" style="text;html=1;align=center;verticalAlign=middle;whiteSpace=wrap;rounded=0;fillColor=#dae8fc;strokeColor=#6c8ebf;" parent="KW59PeZABZt6SA6DWuRM-3" vertex="1">
          <mxGeometry x="165" y="45.5" width="100" height="20" as="geometry" />
        </mxCell>
        <mxCell id="iPUKWWcroHYGa8-xgQve-2" value="Public subnet" style="points=[[0,0],[0.25,0],[0.5,0],[0.75,0],[1,0],[1,0.25],[1,0.5],[1,0.75],[1,1],[0.75,1],[0.5,1],[0.25,1],[0,1],[0,0.75],[0,0.5],[0,0.25]];outlineConnect=0;gradientColor=none;html=1;whiteSpace=wrap;fontSize=12;fontStyle=0;container=1;pointerEvents=0;collapsible=0;recursiveResize=0;shape=mxgraph.aws4.group;grIcon=mxgraph.aws4.group_security_group;grStroke=0;strokeColor=#7AA116;fillColor=#F2F6E8;verticalAlign=top;align=left;spacingLeft=30;fontColor=#248814;dashed=0;" vertex="1" parent="KW59PeZABZt6SA6DWuRM-3">
          <mxGeometry x="40" y="499.5" width="240" height="260" as="geometry" />
        </mxCell>
        <mxCell id="iPUKWWcroHYGa8-xgQve-4" value="Security group" style="fillColor=none;strokeColor=#DD3522;verticalAlign=top;fontStyle=0;fontColor=#DD3522;whiteSpace=wrap;html=1;" vertex="1" parent="iPUKWWcroHYGa8-xgQve-2">
          <mxGeometry x="50" y="65" width="130" height="130" as="geometry" />
        </mxCell>
        <mxCell id="iPUKWWcroHYGa8-xgQve-14" value="" style="outlineConnect=0;dashed=0;verticalLabelPosition=bottom;verticalAlign=top;align=center;html=1;shape=mxgraph.aws3.ec2_compute_container;fillColor=#F58534;gradientColor=none;" vertex="1" parent="iPUKWWcroHYGa8-xgQve-2">
          <mxGeometry x="67.5" y="104.75" width="95" height="50.5" as="geometry" />
        </mxCell>
        <mxCell id="iPUKWWcroHYGa8-xgQve-6" value="&lt;span class=&quot;hljs-number&quot;&gt;192.168&lt;/span&gt;&lt;span class=&quot;hljs-number&quot;&gt;.17&lt;/span&gt;&lt;span class=&quot;hljs-number&quot;&gt;.0&lt;/span&gt;&lt;span class=&quot;hljs-operator&quot;&gt;/&lt;/span&gt;&lt;span class=&quot;hljs-number&quot;&gt;24&lt;/span&gt;" style="text;html=1;align=left;verticalAlign=middle;whiteSpace=wrap;rounded=0;fillColor=#d5e8d4;strokeColor=#82b366;" vertex="1" parent="KW59PeZABZt6SA6DWuRM-3">
          <mxGeometry x="40" y="479.5" width="100" height="20" as="geometry" />
        </mxCell>
        <mxCell id="iPUKWWcroHYGa8-xgQve-12" style="edgeStyle=orthogonalEdgeStyle;rounded=0;orthogonalLoop=1;jettySize=auto;html=1;exitX=0.5;exitY=0;exitDx=0;exitDy=0;exitPerimeter=0;entryX=1;entryY=0.5;entryDx=0;entryDy=0;fillColor=#dae8fc;strokeColor=#6c8ebf;dashed=1;" edge="1" parent="KW59PeZABZt6SA6DWuRM-3" source="iPUKWWcroHYGa8-xgQve-7" target="KW59PeZABZt6SA6DWuRM-10">
          <mxGeometry relative="1" as="geometry" />
        </mxCell>
        <mxCell id="iPUKWWcroHYGa8-xgQve-15" style="edgeStyle=orthogonalEdgeStyle;rounded=0;orthogonalLoop=1;jettySize=auto;html=1;exitX=0.5;exitY=1;exitDx=0;exitDy=0;exitPerimeter=0;entryX=1;entryY=0.5;entryDx=0;entryDy=0;fillColor=#dae8fc;strokeColor=#6c8ebf;dashed=1;" edge="1" parent="KW59PeZABZt6SA6DWuRM-3" source="iPUKWWcroHYGa8-xgQve-7" target="iPUKWWcroHYGa8-xgQve-4">
          <mxGeometry relative="1" as="geometry" />
        </mxCell>
        <mxCell id="iPUKWWcroHYGa8-xgQve-7" value="" style="sketch=0;points=[[0,0,0],[0.25,0,0],[0.5,0,0],[0.75,0,0],[1,0,0],[0,1,0],[0.25,1,0],[0.5,1,0],[0.75,1,0],[1,1,0],[0,0.25,0],[0,0.5,0],[0,0.75,0],[1,0.25,0],[1,0.5,0],[1,0.75,0]];outlineConnect=0;fontColor=#232F3E;fillColor=#ED7100;strokeColor=#ffffff;dashed=0;verticalLabelPosition=bottom;verticalAlign=top;align=center;html=1;fontSize=12;fontStyle=0;aspect=fixed;shape=mxgraph.aws4.resourceIcon;resIcon=mxgraph.aws4.ecs;" vertex="1" parent="KW59PeZABZt6SA6DWuRM-3">
          <mxGeometry x="309" y="403.75" width="78" height="78" as="geometry" />
        </mxCell>
        <mxCell id="KW59PeZABZt6SA6DWuRM-7" value="&lt;font style=&quot;font-size: 12px;&quot;&gt;&lt;span class=&quot;hljs-number&quot;&gt;192.168&lt;/span&gt;&lt;span class=&quot;hljs-number&quot;&gt;.16&lt;/span&gt;&lt;span class=&quot;hljs-number&quot;&gt;.0&lt;/span&gt;&lt;span class=&quot;hljs-operator&quot;&gt;/&lt;/span&gt;&lt;span class=&quot;hljs-number&quot;&gt;20&lt;/span&gt;&lt;/font&gt;" style="text;html=1;align=left;verticalAlign=middle;whiteSpace=wrap;rounded=0;fillColor=#e1d5e7;strokeColor=#9673a6;" parent="KW59PeZABZt6SA6DWuRM-1" vertex="1">
          <mxGeometry x="40" y="70" width="100" height="20" as="geometry" />
        </mxCell>
        <mxCell id="KW59PeZABZt6SA6DWuRM-9" style="edgeStyle=orthogonalEdgeStyle;rounded=0;orthogonalLoop=1;jettySize=auto;html=1;exitX=0.96;exitY=0.65;exitDx=0;exitDy=0;exitPerimeter=0;" parent="1" source="KW59PeZABZt6SA6DWuRM-2" target="KW59PeZABZt6SA6DWuRM-6" edge="1">
          <mxGeometry relative="1" as="geometry" />
        </mxCell>
        <mxCell id="KW59PeZABZt6SA6DWuRM-2" value="" style="sketch=0;pointerEvents=1;shadow=0;dashed=0;html=1;strokeColor=none;labelPosition=center;verticalLabelPosition=bottom;verticalAlign=top;align=center;fillColor=#505050;shape=mxgraph.mscae.intune.user_group" parent="1" vertex="1">
          <mxGeometry x="951" y="476.75" width="50" height="37" as="geometry" />
        </mxCell>
      </root>
    </mxGraphModel>
  </diagram>
</mxfile>
